<svg width="24" height="22" fill="none" xmlns="http://www.w3.org/2000/svg"><path d="M2 1v20h20V1H2z" fill="#006FCF"/><path d="M19.542 10.416h1.503V7h-1.6v.545L19.09 7h-1.397v.692L17.376 7h-2.3c-.105 0-.211.009-.317.026-.089.009-.177.035-.257.052a.85.85 0 00-.186.078l-.212.112V7H6.562l-.212.588L6.138 7h-1.75v.7l-.32-.7H2.637L2 8.462v1.954h1.008l.186-.484h.362l.186.484h7.798v-.501l.39.501h2.148v-.25a1.164 1.164 0 00.354.164c.074.025.151.043.23.052l.362.034h1.29l.186-.484h.354l.186.484h2.157v-.501l.345.501zM22 14.792v-3.208H9.595l-.318.44-.319-.44H5.395V15H8.95l.31-.441.317.441h2.22v-.735h-.018c.256 0 .513-.043.752-.13V15h1.547v-.493l.389.493h6.737c.186 0 .363-.035.54-.095.08-.026.168-.06.256-.113z" fill="#fff"/><path d="M21.204 14.526h-1.212V15h1.194c.513 0 .814-.307.814-.746 0-.42-.274-.666-.734-.666h-.54a.211.211 0 01-.23-.202v-.026a.206.206 0 01.204-.228h1.052l.213-.474h-1.212c-.504 0-.814.307-.814.728 0 .43.283.675.734.675h.54c.124-.008.23.08.23.202v.027a.225.225 0 01-.213.236h-.026zm-2.238 0h-1.212V15h1.194c.505 0 .814-.307.814-.746 0-.42-.274-.666-.734-.666h-.54a.211.211 0 01-.23-.202v-.026a.208.208 0 01.213-.228h1.043l.213-.474h-1.212c-.504 0-.814.307-.814.728 0 .43.283.675.734.675h.54a.211.211 0 01.23.202v.027a.226.226 0 01-.212.236h-.027zm-1.557-1.394v-.474h-1.884V15h1.884v-.474h-1.318v-.473h1.3v-.474H16.1v-.447h1.31zm-3.149 0c.204 0 .31.131.31.29 0 .157-.107.288-.31.288h-.672v-.578h.672zm-.663 1.017h.265l.699.842h.699l-.779-.86c.407-.078.637-.36.637-.728 0-.438-.318-.736-.814-.736h-1.282V15h.566v-.85h.009zm-1.451-.71a.275.275 0 01-.257.29h-.716v-.58h.672c.204.009.301.132.301.29zm-1.54-.781V15h.567v-.772h.708c.513 0 .831-.333.831-.78 0-.466-.318-.781-.814-.781l-1.291-.01zm-.83 2.333h.707l-.947-1.175.938-1.158h-.69l-.575.737-.575-.737h-.707l.937 1.167-.937 1.166h.69l.583-.754.575.754zm-1.956-1.86v-.473H5.936V15H7.82v-.474H6.502v-.473h1.292v-.474H6.502v-.447H7.82zM18.754 8.94l-.01-.193 1.027 1.587h.663V8h-.557l.009 1.526-.097-.175L18.904 8h-.69v2.333h.549V8.94h-.01zm-2.256-.062l.168-.438.168.438.212.518h-.76l.212-.518zm.938 1.465h.637l-1-2.333h-.752l-1.008 2.333h.601l.195-.5h1.123l.204.5zm-2.468 0h.035l.23-.491h-.168c-.39 0-.62-.237-.62-.65v-.034c0-.369.204-.64.602-.64h.61v-.51h-.663c-.725 0-1.123.483-1.123 1.15v.035c.009.684.416 1.131 1.097 1.14zm-2.008 0h.566V8.01h-.566v2.333zm-1.186-1.86c.204 0 .31.132.31.29 0 .158-.106.29-.31.29h-.663v-.58h.663zm-.663 1.01h.265l.7.841h.707l-.779-.86c.407-.078.637-.359.637-.727 0-.439-.318-.737-.813-.737h-1.274v2.333h.566l-.009-.85zm-.99-1.018V8H8.235v2.333h1.884V9.86H8.793v-.465h1.292V8.92H8.793v-.439l1.327-.008zm-4.68.272l-.018-.632.655 2.228h.513l.654-2.22-.017.615v1.596h.548V8h-1l-.45 1.65L5.874 8h-.99v2.333h.548V8.746h.009zm-2.256.131l.168-.438.168.438.213.518h-.761l.212-.518zm.938 1.465h.637l-1-2.333h-.743L2 10.342h.602l.203-.5h1.123l.195.5z" fill="#006FCF"/></svg>