<svg width="35" height="16" fill="none" xmlns="http://www.w3.org/2000/svg"><g clip-path="url(#clip0_1_424)"><path d="M29.609-.609H4.565C3.701-.609 3 .092 3 .957v14.087c0 .864.7 1.565 1.565 1.565H29.61c.864 0 1.565-.701 1.565-1.566V.957c0-.865-.7-1.566-1.565-1.566z" fill="url(#paint0_linear_1_424)"/><path fill-rule="evenodd" clip-rule="evenodd" d="M24.13 6.383c0 .835-.626 1.512-1.4 1.514v.001h-5.104V4.87h5.103c.775.001 1.4.678 1.4 1.513zm0 3.212c0 .835-.626 1.512-1.4 1.514v.002h-5.104V8.082h5.103c.775.002 1.4.679 1.4 1.513zM13.78 8.081h3.748v.296c0 1.52-1.143 2.753-2.551 2.753h-2.383c-1.408 0-2.551-1.232-2.551-2.753v-.734c0-1.52 1.143-2.753 2.551-2.753h2.383c1.408 0 2.55 1.233 2.55 2.753v.255h-3.746v.183z" fill="#fff"/></g><defs><linearGradient id="paint0_linear_1_424" x1="31.174" y1="-.609" x2="15.852" y2="24.463" gradientUnits="userSpaceOnUse"><stop stop-color="#083969"/><stop offset=".492" stop-color="#007B9D"/><stop offset="1" stop-color="#00A84A"/></linearGradient><clipPath id="clip0_1_424"><path fill="#fff" d="M0 0h35v16H0z"/></clipPath></defs></svg>