<svg width="35" height="16" fill="none" xmlns="http://www.w3.org/2000/svg"><g clip-path="url(#clip0_1_431)"><path d="M2.353-.8h33.294a5.107 5.107 0 015.107 5.107v7.385a5.107 5.107 0 01-5.107 5.107H2.353a5.107 5.107 0 01-5.107-5.107V4.307A5.107 5.107 0 012.353-.799z" fill="#FFB3C7"/><path d="M29.366 7.365a2.446 2.446 0 100 4.043v.296h1.39V7.068h-1.39v.297zm-1.263 3.215a1.196 1.196 0 01.126-2.386 1.195 1.195 0 011.131 1.193 1.227 1.227 0 01-1.257 1.193zM10.324 5.002H8.872v6.703h1.452V5.002zm12.751 1.941a1.687 1.687 0 00-1.43.647v-.52h-1.383v4.636h1.4V9.268a.978.978 0 011.041-1.05c.61 0 .96.365.96 1.04v2.447h1.387V8.757c.001-1.08-.857-1.814-1.975-1.814zm-8.357.422a2.446 2.446 0 100 4.043v.296h1.39V7.068h-1.39v.297zm-1.262 3.215a1.195 1.195 0 111.258-1.193 1.229 1.229 0 01-1.258 1.193zm4.797-2.908v-.604h-1.42v4.636h1.424V9.54c0-.73.792-1.123 1.34-1.123h.017V7.07a1.73 1.73 0 00-1.36.603zm13.975 2.388a.87.87 0 10-.001 1.742.87.87 0 000-1.742zM7.87 5H6.365a3.852 3.852 0 01-1.557 3.108l-.597.448 2.312 3.152h1.9l-2.127-2.9A5.335 5.335 0 007.87 5zM4.028 5H2.519v6.707h1.509V5z" fill="#000"/></g><defs><clipPath id="clip0_1_431"><path fill="#fff" d="M0 0h35v16H0z"/></clipPath></defs></svg>