<svg width="25" height="16" fill="none" xmlns="http://www.w3.org/2000/svg"><path d="M5.741 15.916v-1.06c0-.396-.251-.67-.67-.678a.663.663 0 00-.595.297.6.6 0 00-.557-.297.566.566 0 00-.495.251v-.205h-.366v1.684h.373v-.937c0-.29.168-.45.42-.45.251 0 .373.16.373.45v.937h.374v-.937c0-.29.175-.45.419-.45s.374.16.374.45v.937l.35.008zm5.49-1.692h-.603v-.504h-.374v.519h-.343v.335h.343v.77c0 .39.153.625.587.625a.89.89 0 00.465-.13l-.114-.312a.705.705 0 01-.328.092c-.175 0-.244-.115-.244-.282v-.763h.603v-.35h.007zm3.132-.039a.51.51 0 00-.45.244v-.205h-.365v1.684h.373v-.937c0-.282.122-.427.366-.427.076 0 .16.015.229.038l.114-.343a.667.667 0 00-.267-.054zm-4.741.176a1.298 1.298 0 00-.687-.176c-.426 0-.709.206-.709.542 0 .274.206.45.58.503l.175.023c.206.03.298.076.298.175 0 .13-.13.206-.382.206a.887.887 0 01-.564-.175l-.175.282c.213.152.473.228.724.22.48 0 .77-.228.77-.548 0-.297-.221-.457-.587-.51l-.175-.024c-.16-.023-.282-.053-.282-.168 0-.114.122-.198.327-.198.183 0 .374.054.526.137l.16-.29zm9.841-.176a.51.51 0 00-.45.244v-.205h-.365v1.684h.373v-.937c0-.282.122-.427.366-.427.076 0 .16.015.229.038l.114-.343a.619.619 0 00-.267-.054zm-4.726.892a.855.855 0 00.9.885.898.898 0 00.61-.206l-.176-.297a.751.751 0 01-.435.152c-.29 0-.51-.221-.51-.541 0-.328.22-.542.51-.542.159 0 .312.054.435.153l.175-.297a.924.924 0 00-.61-.206c-.548.007-.9.381-.9.9zm3.438 0v-.838h-.373v.206a.608.608 0 00-.534-.244c-.473 0-.846.373-.846.884 0 .51.373.884.846.884a.633.633 0 00.534-.251v.206h.373v-.847zm-1.372 0c0-.297.198-.54.51-.54.306 0 .512.236.512.54 0 .305-.206.542-.511.542-.313 0-.511-.244-.511-.542zm-4.43-.892c-.495 0-.838.366-.838.885 0 .526.366.884.861.884.252.008.504-.076.687-.236l-.176-.275a.77.77 0 01-.495.176c-.237 0-.458-.115-.503-.42h1.257c0-.045.008-.091.008-.137 0-.51-.328-.877-.8-.877zm-.007.336c.236 0 .389.152.427.412h-.877c.046-.252.19-.412.45-.412zm9.217.556v-1.524h-.374v.884a.608.608 0 00-.533-.244c-.473 0-.847.374-.847.884 0 .511.374.885.847.885a.634.634 0 00.533-.252v.206h.374v-.839zm-1.372 0c0-.297.198-.54.51-.54.305 0 .511.236.511.54 0 .305-.206.542-.51.542-.306 0-.511-.244-.511-.542zm-12.404 0v-.838h-.373v.206A.608.608 0 006.9 14.2c-.473 0-.846.373-.846.884 0 .51.373.884.846.884a.633.633 0 00.534-.251v.206h.373v-.847zm-1.364 0c0-.297.198-.54.51-.54.305 0 .511.236.511.54 0 .305-.206.542-.51.542-.306 0-.511-.244-.511-.542zm15.757.595c.023 0 .046.008.077.015a.165.165 0 01.091.084c.008.023.015.038.015.061a.144.144 0 01-.015.061.137.137 0 01-.038.053.135.135 0 01-.053.039.224.224 0 01-.077.015c-.03 0-.045-.008-.076-.015-.023-.008-.038-.023-.053-.038a.138.138 0 01-.038-.054c-.008-.023-.016-.038-.016-.06 0-.024.008-.047.016-.062a.12.12 0 01.038-.053c.015-.015.03-.03.053-.038.03-.008.046-.008.076-.008zm0 .297c.016 0 .03 0 .046-.007.015-.008.03-.015.038-.03.008-.024.023-.024.03-.039.016-.03.016-.076 0-.099-.007-.015-.015-.03-.03-.038s-.023-.023-.038-.03c-.015-.008-.03-.008-.046-.008-.015 0-.038 0-.053.007-.015.008-.03.016-.038.03a.134.134 0 00-.03.039c-.016.03-.016.076 0 .1.007.014.015.03.03.037.015.008.023.023.038.03.015.008.023.008.053.008zm.008-.205c.015 0 .03 0 .046.015a.058.058 0 01.015.038c0 .015-.008.023-.015.03a.058.058 0 01-.038.016l.045.06h-.038l-.046-.053h-.015v.054h-.03v-.16h.076zm-.046.022v.039h.038c.008 0 .016 0 .023-.008.008-.008.008-.015 0-.03-.007 0-.015-.008-.023-.008l-.038.007z" fill="#000"/><path d="M9.507 1.363h5.565v10.002H9.507V1.363z" fill="#FF5F00"/><path d="M9.857 6.356a6.357 6.357 0 012.424-5C9.514-.81 5.52-.33 3.354 2.43a6.366 6.366 0 001.075 8.927 6.366 6.366 0 007.867 0 6.305 6.305 0 01-2.44-5z" fill="#EB001B"/><path d="M22.573 6.356a6.354 6.354 0 01-6.358 6.358 6.324 6.324 0 01-3.926-1.357 6.366 6.366 0 001.068-8.927 6.731 6.731 0 00-1.068-1.067 6.358 6.358 0 018.928 1.067 6.355 6.355 0 011.357 3.926zm-.61 3.942v-.206h.077v-.038h-.214v.038h.077v.206h.06zm.412 0v-.244h-.06l-.077.175-.076-.175H22.1v.244h.046v-.183l.076.16h.046l.076-.16v.183h.03z" fill="#F79E1B"/></svg>