<svg width="40" height="16" fill="none" xmlns="http://www.w3.org/2000/svg"><path d="M15.305 7.837c-.115.753-.688.753-1.246.753h-.317l.222-1.406a.172.172 0 01.172-.148h.145c.378 0 .736 0 .92.215.108.13.141.32.104.586zm-.243-1.966H12.96a.293.293 0 00-.289.246l-.848 5.38a.171.171 0 00.172.203h1.002a.291.291 0 00.288-.246l.229-1.452a.293.293 0 01.288-.246h.664c1.383 0 2.18-.669 2.388-1.994.094-.58.004-1.031-.267-1.354-.297-.351-.827-.537-1.529-.537h.004zm4.868 3.897a1.117 1.117 0 01-1.134.96c-.292 0-.525-.094-.674-.272a.853.853 0 01-.158-.706 1.124 1.124 0 011.122-.966.848.848 0 01.67.273.87.87 0 01.174.71zm1.4-1.955h-1.005a.172.172 0 00-.172.147l-.044.28-.07-.1c-.218-.317-.703-.422-1.187-.422-1.11 0-2.062.84-2.244 2.02-.095.59.042 1.151.375 1.547.306.361.744.512 1.266.512a1.921 1.921 0 001.39-.576l-.044.28a.171.171 0 00.098.187.17.17 0 00.073.015h.906a.292.292 0 00.288-.247l.543-3.437a.172.172 0 00-.172-.206zm5.351 0h-1.009a.29.29 0 00-.241.127l-1.393 2.05-.59-1.97a.291.291 0 00-.28-.208h-.988a.172.172 0 00-.166.23l1.112 3.266-1.046 1.476a.172.172 0 00.143.277h1.009a.294.294 0 00.24-.126l3.353-4.85a.172.172 0 00-.144-.273z" fill="#253B80"/><path d="M30.266 7.837c-.114.753-.687.753-1.246.753h-.316l.223-1.406a.172.172 0 01.172-.148h.145c.379 0 .736 0 .921.215.11.13.143.32.101.586zm-.242-1.966h-2.098a.292.292 0 00-.288.246l-.849 5.38a.171.171 0 00.172.203h1.077a.204.204 0 00.201-.172l.24-1.526a.293.293 0 01.289-.246h.664c1.382 0 2.18-.669 2.388-1.994.095-.58 0-1.031-.268-1.354-.296-.351-.825-.537-1.528-.537zm4.874 3.897a1.117 1.117 0 01-1.133.96c-.291 0-.525-.094-.676-.272a.86.86 0 01-.157-.706 1.125 1.125 0 011.126-.966.848.848 0 01.67.273.867.867 0 01.17.71zm1.4-1.955h-1.006a.172.172 0 00-.172.147l-.044.28-.071-.1c-.218-.317-.702-.422-1.186-.422-1.11 0-2.058.84-2.243 2.02-.096.59.04 1.151.374 1.547.307.361.744.512 1.266.512a1.921 1.921 0 001.39-.576l-.044.28a.172.172 0 00.171.202h.905a.292.292 0 00.288-.247l.543-3.437a.172.172 0 00-.173-.206h.002zm1.182-1.79l-.863 5.475a.171.171 0 00.172.202h.866a.291.291 0 00.288-.246l.85-5.38a.171.171 0 00-.173-.203h-.967a.172.172 0 00-.172.152z" fill="#179BD7"/><path d="M3.11 12.745l.163-1.019-.357-.008h-1.71l1.186-7.52a.108.108 0 01.033-.06.098.098 0 01.064-.023h2.877c.956 0 1.615.2 1.96.591.152.167.26.37.313.589.053.268.053.543 0 .81v.232l.162.092c.123.063.233.147.326.25.144.168.236.375.266.594.036.287.024.577-.038.86a3.044 3.044 0 01-.355.98c-.142.24-.332.45-.56.613-.228.16-.484.276-.754.344-.31.075-.627.112-.945.108h-.222a.675.675 0 00-.666.569l-.017.092-.284 1.796-.013.066a.053.053 0 01-.017.038.046.046 0 01-.03.01l-1.383-.002z" fill="#253B80"/><path d="M7.952 6.153l-.03.172c-.38 1.946-1.678 2.62-3.336 2.62h-.844a.41.41 0 00-.406.344l-.43 2.741-.124.782a.215.215 0 00.213.25h1.497a.36.36 0 00.357-.304l.014-.076.282-1.79.018-.097a.36.36 0 01.356-.303h.224c1.45 0 2.587-.59 2.922-2.294.139-.712.067-1.307-.3-1.724a1.428 1.428 0 00-.413-.32z" fill="#179BD7"/><path d="M7.555 5.995a2.737 2.737 0 00-.37-.083 4.674 4.674 0 00-.744-.054H4.185a.365.365 0 00-.288.145.358.358 0 00-.067.16l-.48 3.04-.014.086a.41.41 0 01.406-.344h.844c1.658 0 2.957-.674 3.337-2.622l.029-.172a2.048 2.048 0 00-.312-.131l-.085-.025z" fill="#222D65"/><path d="M3.83 6.163a.358.358 0 01.355-.304h2.256a4.674 4.674 0 01.934.09c.061.013.121.029.18.046l.086.027c.107.035.212.079.312.131.113-.72 0-1.21-.39-1.654-.43-.49-1.204-.698-2.195-.698h-2.88a.41.41 0 00-.406.344L.88 11.743a.248.248 0 00.246.29h1.779l.446-2.83.48-3.04z" fill="#253B80"/></svg>