<svg width="31" height="16" fill="none" xmlns="http://www.w3.org/2000/svg"><g clip-path="url(#clip0_1_427)"><g clip-path="url(#clip1_1_427)"><path d="M29.936-1H1.064C.477-1 0-.546 0 .014v15.972C0 16.546.477 17 1.064 17h28.872c.587 0 1.064-.454 1.064-1.014V.014C31-.546 30.523-1 29.936-1z" fill="#5A31F4"/><path d="M17.443 6.183c0 1.305-.96 2.237-2.301 2.237h-1.264a.11.11 0 00-.075.03.1.1 0 00-.03.07v1.716a.098.098 0 01-.032.071.109.109 0 01-.075.03h-.885a.11.11 0 01-.075-.03.1.1 0 01-.03-.071V4.048a.1.1 0 01.03-.071.109.109 0 01.075-.03h2.367c1.335-.001 2.295.93 2.295 2.236zm-1.103 0c0-.75-.536-1.297-1.264-1.297h-1.198a.111.111 0 00-.075.03.098.098 0 00-.031.072v2.387a.098.098 0 00.031.071.105.105 0 00.075.03h1.197c.729.004 1.265-.544 1.265-1.293zm1.366 2.967c-.01-.2.034-.399.126-.579.092-.18.23-.335.401-.452.346-.247.885-.375 1.677-.402l.843-.028v-.237c0-.475-.334-.676-.871-.676-.537 0-.877.182-.956.478a.098.098 0 01-.038.052.107.107 0 01-.063.018h-.833a.11.11 0 01-.082-.034.098.098 0 01-.024-.081c.123-.702.737-1.236 2.034-1.236 1.38 0 1.878.612 1.878 1.78v2.483a.1.1 0 01-.031.072.11.11 0 01-.076.03h-.84a.108.108 0 01-.075-.03.102.102 0 01-.032-.072v-.185a.073.073 0 00-.013-.043.079.079 0 00-.036-.029.083.083 0 00-.088.018c-.252.261-.659.45-1.31.45-.959 0-1.591-.475-1.591-1.297zm3.047-.538V8.42l-1.092.055c-.575.028-.91.255-.91.639 0 .347.307.54.843.54.729 0 1.16-.376 1.16-1.042zm1.889 3.6v-.719a.09.09 0 01.01-.043.108.108 0 01.118-.056c.129.022.26.034.39.034.226.011.449-.05.633-.175a.964.964 0 00.384-.51l.054-.166a.102.102 0 000-.069l-1.75-4.28a.1.1 0 01.028-.114.11.11 0 01.072-.027h.848c.022 0 .043.006.061.018a.104.104 0 01.04.048l1.188 3.02a.1.1 0 00.039.05.112.112 0 00.125 0 .103.103 0 00.04-.05l1.031-3.012a.103.103 0 01.04-.051.111.111 0 01.063-.02h.878a.11.11 0 01.05.013c.016.008.03.019.04.033a.1.1 0 01.011.095l-1.872 4.755c-.43 1.106-1.17 1.388-1.983 1.388a1.66 1.66 0 01-.457-.052.109.109 0 01-.062-.04.1.1 0 01-.02-.07zM6.992 3.59a4.48 4.48 0 00-3.005 1.117.175.175 0 00-.024.243l.505.656a.19.19 0 00.142.077.202.202 0 00.152-.054c.293-.28.642-.5 1.025-.65a3.26 3.26 0 011.21-.22c1.729 0 2.632 1.24 2.632 2.465 0 1.332-.95 2.269-2.313 2.287-1.054 0-1.849-.666-1.849-1.545.001-.222.054-.441.155-.642.1-.2.247-.377.428-.517a.175.175 0 00.027-.253l-.532-.637a.191.191 0 00-.132-.07.202.202 0 00-.143.043c-.326.25-.589.566-.77.925-.18.36-.274.753-.274 1.151 0 1.514 1.35 2.701 3.08 2.711h.023c2.054-.025 3.539-1.475 3.539-3.455 0-1.76-1.36-3.632-3.876-3.632z" fill="#fff"/></g></g><defs><clipPath id="clip0_1_427"><path fill="#fff" d="M0 0h31v16H0z"/></clipPath><clipPath id="clip1_1_427"><path fill="#fff" transform="translate(0 -1)" d="M0 0h31v18H0z"/></clipPath></defs></svg>