<svg width="35" height="14" fill="none" xmlns="http://www.w3.org/2000/svg"><path d="M11.107 2.18L8.514 8.749l-1.062-5.59a1.156 1.156 0 00-1.148-.977h-4.25L2 2.457c.882.191 1.87.5 2.465.818.372.213.479.372.596.85l1.987 7.705h2.646l4.06-9.65h-2.647zm3.699 0l-2.062 9.66h2.497l2.073-9.66h-2.508zm5.78 2.679c.011-.351.33-.723 1.063-.808.85-.085 1.7.074 2.466.436l.446-2.051A6.966 6.966 0 0022.201 2c-2.465 0-4.197 1.318-4.207 3.199-.011 1.392 1.243 2.157 2.189 2.635.977.478 1.307.776 1.296 1.201-.01.638-.776.935-1.488.946-1.253.032-1.987-.33-2.56-.617l-.458 2.115c.585.266 1.658.5 2.774.521 2.625 0 4.346-1.296 4.346-3.305 0-2.561-3.528-2.7-3.506-3.836zm10.32-2.678h-2.137c-.467 0-.892.276-1.062.712l-3.752 8.948h2.625l.532-1.435h3.209l.297 1.435h2.317l-2.03-9.66zm-3.082 6.227l1.317-3.624.755 3.624h-2.072z" fill="#034EA1"/></svg>