<svg width="13" height="12" fill="none" xmlns="http://www.w3.org/2000/svg"><path d="M6.86 10.543C6.48 8.756 6.1 6.94 5.72 5.154c-.089-.468-.089-.937-.469-1.259L2.968 1.933A105.804 105.804 0 00.948.205L.686.82 10.87.732h1.464c-.118-.205-.205-.38-.322-.556-1.698 2.987-3.395 6.003-5.093 8.99-.234.44-.497.85-.731 1.29-.235.438.41.79.643.38 1.698-2.987 3.395-6.004 5.093-8.991.234-.44.497-.85.731-1.289.147-.234-.029-.556-.321-.556L2.149.088H.685c-.292 0-.497.44-.263.644 1.346 1.172 2.693 2.314 4.039 3.485.117.088.205.205.322.293.175.117.029.146 0-.059 0 .205.088.469.146.674l.673 3.221c.176.82.351 1.611.527 2.431.088.469.79.264.702-.205l.03-.03z" fill="#000"/><path d="M5.192 4.334l7.17-3.983" stroke="#000" stroke-width=".25" stroke-miterlimit="10" stroke-linecap="round"/></svg>