<svg width="14" height="12" fill="none" xmlns="http://www.w3.org/2000/svg"><path d="M7.12 11.597a.92.92 0 01-.76-.41L1.735 6.326a3.783 3.783 0 01-.819-2.314A3.786 3.786 0 014.691.234c.878 0 1.727.323 2.4.879a3.783 3.783 0 012.4-.879 3.786 3.786 0 013.776 3.778c0 .85-.293 1.64-.82 2.314l-.117.146a1.387 1.387 0 01-.293.293l-4.243 4.48c-.117.206-.41.352-.732.352h.059zM2.556 6.21l4.331 4.539s.176.146.235.146c.058 0 .117 0 .175-.087l4.302-4.54s.176-.175.234-.263l.117-.147c.44-.556.674-1.2.674-1.903A3.105 3.105 0 009.52.849c-.82 0-1.58.323-2.165.908l-.234.235-.235-.235A3.033 3.033 0 004.721.85a3.105 3.105 0 00-3.103 3.105c0 .673.235 1.347.674 1.903l.204.264.059.058v.03z" fill="#000"/></svg>