<svg width="14" height="18" fill="none" xmlns="http://www.w3.org/2000/svg"><mask id="mask0_348_980" style="mask-type:luminance" maskUnits="userSpaceOnUse" x="0" y="9" width="14" height="9"><path fill-rule="evenodd" clip-rule="evenodd" d="M0 9.883h13.148v7.284H0V9.883z" fill="#fff"/></mask><g mask="url(#mask0_348_980)"><path fill-rule="evenodd" clip-rule="evenodd" d="M13.148 13.784l-.004-.007c-1.266-2.314-3.71-3.894-6.533-3.894-2.825 0-5.268 1.58-6.532 3.894l-.08.19a8.15 8.15 0 006.504 3.2c2.753 0 5.187-1.342 6.645-3.383z" fill="#6B180B"/></g><mask id="mask1_348_980" style="mask-type:luminance" maskUnits="userSpaceOnUse" x="2" y="0" width="9" height="8"><path fill-rule="evenodd" clip-rule="evenodd" d="M2.734 0h7.539v7.538H2.734V0z" fill="#fff"/></mask><g mask="url(#mask1_348_980)"><path fill-rule="evenodd" clip-rule="evenodd" d="M10.273 3.769a3.77 3.77 0 10-7.539 0 3.77 3.77 0 007.539 0z" fill="#6B180B"/></g></svg>