<svg width="161" height="26" fill="none" xmlns="http://www.w3.org/2000/svg"><mask id="mask0_1_505" style="mask-type:luminance" maskUnits="userSpaceOnUse" x="0" y="0" width="161" height="26"><path fill-rule="evenodd" clip-rule="evenodd" d="M0 0h160.48v26H0V0z" fill="#fff"/></mask><g mask="url(#mask0_1_505)"><path fill-rule="evenodd" clip-rule="evenodd" d="M158.159 2.611c.739.074 1.353.165 1.353.553 0 .477-.765.635-1.293.635-.426 0-.923-.195-1.624-.531l-.301.686c.732.411 1.239.581 2.009.581.856 0 2.177-.28 2.177-1.371 0-1.117-1.187-1.265-2.05-1.338-.309-.029-1.25-.043-1.25-.477 0-.259.291-.553 1.161-.553a3.79 3.79 0 011.719.441l.279-.625a3.833 3.833 0 00-1.998-.546c-.802 0-2.108.24-2.108 1.32 0 .993 1.032 1.132 1.926 1.225zM156.12 8.94c-2.335-.397-4.471.079-6.426 1.32-.202.128-.408.249-.719.437-1.524.468-3.197-1.113-4.808-1.631-.196-.047-.286-.002-.326.052-.062.084-.004.261.028.387.003.005.004.012.006.018.248.94.399 1.901.456 2.867v13.262h4.657s.075-8.667-.027-12.044l.01-.996c.12-.906.667-1.42 1.543-1.826 1.952-.904 5.04-.739 5.186 2.544.15 3.375 0 12.322 0 12.322h4.638s.134-9.648 0-12.296c-.125-2.505-1.632-3.977-4.218-4.416zm-4.923-4.466h.952V.176h-.952v4.298zm-7.541-3.58h1.549c.554 0 .797.238.797.552 0 .319-.323.588-.869.588l-1.477-.013V.894zm2.216 3.581h.979v-.074l-1.28-1.644-.075-.024c.765-.085 1.411-.613 1.411-1.3 0-.742-.723-1.257-1.738-1.257h-2.496v4.3h.97l.013-1.705h.827c.405.454 1.389 1.704 1.389 1.704zm-10.078-1.654l.753-1.607h.008l.734 1.607h-1.495zm.4-2.656l-2.097 4.31h.937l.451-.958 2.108-.006.442.964h.966l-2.006-4.31h-.801zm-8.132.802h1.287c.553-.01.879.374.879.747 0 .43-.448.75-1 .75h-1.166V.967zm0 2.22h1.305c1.02 0 1.84-.552 1.84-1.483 0-.969-.851-1.528-1.871-1.528h-2.261v4.3h.987v-1.29zm-98.33-1.393c-1.302 0-2.317 1.008-2.305 2.291.01 1.224 1.058 2.212 2.33 2.192 1.35-.02 2.413-.998 2.408-2.216-.004-1.285-1.059-2.267-2.433-2.267zm44.924 8.526c1.492-1.076 3.446-.632 4.09 1.01.401 1.017.5 2.142.756 3.3h-7.109c.336-1.684.785-3.244 2.263-4.31zm9.303 5.456c-.051-1.78-.347-3.415-1.61-4.734-2.166-2.265-5.083-2.733-8.026-2.114-3.948.83-6.43 4.099-6.672 8.055-.23 3.83 2.005 7.21 5.79 8.451 3.912 1.284 7.49.419 10.04-2.974.144-.193.274-.432.338-.678-.091-.024-.322-.098-.416-.123-.24.186-.473.376-.719.555-3.562 2.586-7.783 1.716-9.554-1.998-.658-1.382-.916-2.852-.813-4.44H83.96zM59.304.176L59.3 25.653h4.655L63.953.175h-4.65zm-36.68 18.212c-.674 1.64-1.74 3.033-3.031 4.284-2.279 2.212-5.648 2.808-8.475 1.478-2.5-1.174-3.948-3.187-4.756-5.605-1.105-3.294-1.197-6.656-.282-10.003.772-2.832 2.29-5.224 5.154-6.621C14.219.46 18.22.793 20.419 3.864c.766 1.073 1.23 2.335 1.852 3.503.118.223.322.404.487.604.068-.039.135-.078.206-.117V.798c-.085-.037-.151-.09-.224-.096-3.16-.342-6.296-.832-9.508-.67C6.13.393.909 4.92.09 11.527c-.748 6.03 3.232 11.862 9.38 13.719 4.481 1.352 8.845.683 13.154-.73.175-.057.373-.33.385-.512.12-1.823.21-3.645.282-5.468.008-.169-.155-.343-.239-.515-.146.121-.365.216-.428.367zm106.029-9.373l-2.245-.006-6.566 6.571V.176h-4.62l-.047 25.477h4.583l.084-8.937.153-.022 6.316 8.959h5.184l-8.172-11.39 5.33-5.248zM49.257 22.557c-.788 2.197-2.992 2.703-4.999 2.123-1.173-.338-1.63-1.29-1.672-2.327-.073-2.015-.155-9.266-.183-10.87-.007-.428.154-.66.534-.861 2.78-1.486 5.733-.477 6.574 2.448.904 3.152.868 6.36-.254 9.487zm1.695-12.736c-2.791-1.373-5.603-1.357-8.561.06V.176h-4.62l-.044 20.58a14.734 14.734 0 01-.486 3.73l-.005.017c-.032.126-.09.303-.027.388.039.053.13.096.326.053 1.68-.542 3.273-.169 4.86.348 1.537.498 3.164.688 4.761.46 5.333-.765 8.706-4.99 7.983-9.965-.375-2.589-1.632-4.706-4.187-5.966zm-23.48-.806l-.004 16.637h4.655V9.015h-4.651zm106.6 0l-.003 16.637h4.655l-.003-16.637h-4.649zm-30.009 1.793l-2.794-.939c-3.424-1.187-4.423-2.783-4.423-4.69 0-2.095 1.797-3.501 5.053-3.501 3.792 0 6.12 2.439 7.349 6.534h.433V1.898C107.62.897 104.86.238 101.934.238c-4.923 0-8.81 2.316-8.81 6.411 0 3.094 1.727 5.69 6.415 7.254l2.527.844c3.361 1.126 5.354 2.501 5.354 5.097 0 2.97-2.228 4.377-6.052 4.377-4.357 0-6.717-2.688-8.046-7.38h-.4v6.943c2.328 1.25 5.52 1.906 8.646 1.906 5.552 0 9.875-2.565 9.875-7.379 0-4.69-3.989-6.348-7.38-7.503z" fill="#6C1401"/></g></svg>