<svg width="125" height="20" fill="none" xmlns="http://www.w3.org/2000/svg"><mask id="mask0_104_640" style="mask-type:luminance" maskUnits="userSpaceOnUse" x="0" y="0" width="125" height="20"><path fill-rule="evenodd" clip-rule="evenodd" d="M0 0h124.596v20H0V0z" fill="#fff"/></mask><g mask="url(#mask0_104_640)"><path fill-rule="evenodd" clip-rule="evenodd" d="M122.794 2.009c.574.057 1.051.127 1.051.425 0 .367-.594.489-1.004.489-.331 0-.717-.15-1.261-.41l-.234.529c.569.316.962.447 1.56.447.665 0 1.69-.216 1.69-1.055 0-.86-.921-.973-1.591-1.03-.24-.021-.971-.032-.971-.366 0-.2.226-.425.902-.425.424 0 .915.117 1.334.339l.217-.481a2.997 2.997 0 00-1.551-.42c-.623 0-1.637.184-1.637 1.015 0 .764.801.87 1.495.943zm-1.583 4.868c-1.813-.305-3.471.06-4.989 1.015-.157.099-.317.192-.558.337-1.183.36-2.482-.856-3.733-1.255-.152-.036-.222-.001-.253.04-.048.065-.003.2.022.298a11.09 11.09 0 01.358 2.219v10.202h3.616s.058-6.667-.021-9.265l.008-.766c.093-.697.518-1.093 1.198-1.405 1.515-.695 3.913-.568 4.026 1.957.117 2.596 0 9.479 0 9.479h3.601s.104-7.422 0-9.46c-.097-1.926-1.267-3.058-3.275-3.396zm-3.822-3.435h.739V.136h-.739v3.306zM111.534.688h1.203c.43 0 .619.183.619.425 0 .245-.251.452-.675.452l-1.147-.01V.688zm1.721 2.755h.76v-.057l-.994-1.265-.058-.018c.594-.066 1.095-.472 1.095-1 0-.571-.561-.967-1.349-.967h-1.938v3.307h.753l.01-1.311h.642a42.909 42.909 0 011.079 1.31zM105.43 2.17l.585-1.236h.006l.57 1.236h-1.161zm.311-2.043l-1.628 3.316h.727l.35-.737 1.637-.005.343.742h.75L106.363.127h-.622zm-6.314.617h.999c.43-.008.683.288.683.575 0 .33-.348.577-.777.577h-.905V.744zm0 1.708h1.013c.792 0 1.429-.425 1.429-1.141 0-.745-.661-1.175-1.453-1.175h-1.755v3.307h.766v-.991zM23.084 1.38c-1.011 0-1.799.776-1.79 1.763.008.94.822 1.7 1.809 1.686 1.048-.015 1.874-.768 1.87-1.705-.003-.988-.822-1.744-1.889-1.744zm34.879 6.559c1.158-.828 2.675-.486 3.175.777.312.782.389 1.647.587 2.538h-5.519c.261-1.295.609-2.495 1.757-3.315zm7.223 4.197c-.04-1.37-.27-2.627-1.251-3.642-1.681-1.742-3.946-2.102-6.231-1.626-3.065.638-4.992 3.153-5.18 6.196-.179 2.946 1.557 5.546 4.495 6.5 3.038.989 5.815.323 7.796-2.287.111-.148.212-.332.262-.521-.071-.02-.25-.076-.323-.095-.186.143-.367.289-.558.427-2.766 1.989-6.043 1.32-7.418-1.537-.511-1.063-.711-2.194-.631-3.415h9.039zm-19.143-12l-.003 19.597h3.614L49.653.136h-3.61zM17.565 14.145c-.524 1.26-1.352 2.333-2.354 3.295-1.769 1.702-4.385 2.16-6.58 1.137-1.941-.903-3.065-2.451-3.692-4.311A12.88 12.88 0 014.72 6.57c.599-2.178 1.778-4.018 4.001-5.093C11.04.355 14.146.61 15.853 2.973c.595.825.956 1.796 1.438 2.694.092.172.25.31.378.465l.16-.09V.614c-.066-.028-.117-.07-.174-.074-2.452-.262-4.888-.64-7.382-.515C4.76.303.706 3.785.07 8.867c-.581 4.639 2.509 9.125 7.282 10.553 3.48 1.04 6.868.526 10.213-.561.136-.044.29-.254.299-.394.094-1.402.163-2.804.219-4.206.006-.13-.12-.264-.185-.396-.114.093-.284.166-.333.282zm82.32-7.21l-1.743-.005-5.098 5.055V.135h-3.587l-.036 19.598h3.558l.065-6.874.119-.017 4.904 6.89h4.025l-6.345-8.76 4.138-4.037zM38.243 17.352c-.612 1.69-2.323 2.079-3.881 1.633-.911-.26-1.266-.993-1.298-1.79-.057-1.55-.121-7.128-.142-8.362-.006-.33.119-.507.414-.662 2.159-1.143 4.451-.367 5.104 1.883.702 2.425.674 4.892-.197 7.298zm1.316-9.797c-2.167-1.056-4.35-1.044-6.647.046V.136h-3.587l-.034 15.83a11.234 11.234 0 01-.377 2.869l-.004.014c-.025.097-.07.233-.021.298.03.04.101.074.253.04 1.305-.416 2.541-.13 3.774.269 1.193.383 2.456.529 3.696.353 4.14-.588 6.759-3.838 6.198-7.665-.291-1.991-1.267-3.62-3.251-4.59zm-18.23-.62l-.003 12.798h3.614V6.935h-3.611zm82.764 0l-.002 12.798h3.614l-.002-12.798h-3.61zM80.794 8.314l-2.169-.722c-2.658-.913-3.434-2.141-3.434-3.608 0-1.611 1.395-2.693 3.923-2.693 2.944 0 4.752 1.876 5.706 5.026h.336V1.46C83.556.69 81.413.184 79.141.184c-3.822 0-6.84 1.78-6.84 4.93 0 2.38 1.341 4.378 4.981 5.58l1.962.65c2.609.866 4.157 1.924 4.157 3.92 0 2.285-1.73 3.368-4.699 3.368-3.383 0-5.215-2.068-6.247-5.677h-.31v5.34c1.807.962 4.285 1.467 6.712 1.467 4.311 0 7.667-1.973 7.667-5.676 0-3.608-3.097-4.883-5.73-5.772z" fill="#6C1401"/></g></svg>