<svg width="289" height="33" fill="none" xmlns="http://www.w3.org/2000/svg"><path d="M16.055.444l3.604 11.095h11.666l-9.438 6.856 3.605 11.094-9.437-6.856-9.438 6.856 3.605-11.094L.785 11.54H12.45L16.055.444zm64.223 0l3.605 11.095h11.665l-9.437 6.856 3.605 11.094-9.438-6.856-9.437 6.856 3.605-11.094-9.438-6.856h11.666L80.278.444zm64.221 0l3.605 11.095h11.665l-9.437 6.856 3.605 11.094-9.438-6.856-9.437 6.856 3.605-11.094-9.438-6.856h11.666L144.499.444zm64.223 0l3.604 11.095h11.665l-9.437 6.856 3.605 11.094-9.437-6.856-9.438 6.856 3.605-11.094-9.437-6.856h11.665L208.722.444zm64.223 0l3.605 11.095h11.665l-9.437 6.856 3.605 11.094-9.438-6.856-9.437 6.856 3.605-11.094-9.438-6.856h11.666L272.945.444z" fill="#FFC700"/></svg>